<?xml version="1.0" standalone="no"?>
<!DOCTYPE svg PUBLIC "-//W3C//DTD SVG 20010904//EN"
 "http://www.w3.org/TR/2001/REC-SVG-20010904/DTD/svg10.dtd">
<svg version="1.0" xmlns="http://www.w3.org/2000/svg"
 width="556.000000pt" height="537.000000pt" viewBox="0 0 556.000000 537.000000"
 preserveAspectRatio="xMidYMid meet">
<metadata>
Created by potrace 1.16, written by Peter Selinger 2001-2019
</metadata>
<g transform="translate(0.000000,537.000000) scale(0.100000,-0.100000)"
fill="#000000" stroke="none">
<path d="M441 5259 c-53 -17 -76 -32 -127 -83 -52 -53 -65 -73 -83 -130 -20
-65 -21 -89 -21 -528 l0 -460 29 -29 c38 -38 74 -38 112 0 l29 29 0 456 c0
297 4 464 11 483 14 38 57 83 96 99 26 11 123 14 488 14 l457 0 29 29 c38 38
38 74 0 112 l-29 29 -464 -1 c-437 0 -467 -1 -527 -20z"/>
<path d="M4079 5251 c-17 -18 -29 -40 -29 -56 0 -16 12 -38 29 -56 l29 -29
456 0 c297 0 464 -4 483 -11 38 -14 83 -57 99 -96 11 -26 14 -123 14 -488 l0
-457 29 -29 c18 -17 40 -29 56 -29 16 0 38 12 56 29 l29 29 0 460 c0 439 -1
463 -21 528 -18 57 -31 77 -83 130 -53 52 -73 65 -130 83 -65 20 -89 21 -528
21 l-460 0 -29 -29z"/>
<path d="M2548 4929 c-152 -13 -179 -24 -198 -76 -11 -34 -20 -43 -45 -48 -61
-13 -192 -57 -253 -87 -58 -29 -63 -30 -80 -14 -33 29 -85 20 -139 -23 -135
-106 -227 -262 -269 -455 -36 -161 -10 -465 53 -632 2 -6 -17 -19 -43 -29 -66
-25 -107 -65 -138 -136 -32 -71 -38 -167 -13 -236 l14 -42 -589 -3 -590 -3
-24 -28 c-13 -15 -24 -37 -24 -48 0 -28 26 -75 45 -83 9 -3 295 -6 635 -6 710
0 635 12 645 -106 3 -38 11 -88 17 -112 15 -58 75 -124 140 -152 62 -26 68
-33 68 -81 0 -52 45 -217 77 -285 15 -31 50 -82 78 -112 l50 -54 -19 -157
c-11 -86 -20 -157 -21 -158 0 -1 -191 -61 -423 -133 -232 -71 -444 -141 -470
-154 -91 -46 -171 -143 -202 -244 -17 -54 -20 -93 -20 -243 0 -196 6 -224 56
-270 16 -15 44 -31 63 -38 49 -16 3633 -16 3682 0 19 7 47 23 63 38 50 46 56
74 56 270 0 245 -22 313 -137 426 -46 45 -146 95 -191 95 -58 0 -99 -68 -71
-119 8 -14 38 -37 66 -51 68 -33 110 -74 139 -135 22 -46 24 -63 24 -207 l0
-158 -1790 0 -1790 0 0 158 c0 136 3 163 21 202 22 50 70 105 110 125 14 7
203 68 420 135 216 66 399 123 406 125 6 2 25 -20 41 -48 89 -158 279 -278
522 -330 135 -28 405 -28 540 0 233 50 409 156 506 306 16 24 34 52 39 60 9
13 28 10 152 -28 121 -38 147 -43 173 -34 36 13 50 36 50 82 0 52 -30 70 -193
121 -82 25 -150 46 -151 46 -1 0 -11 72 -21 159 l-18 160 53 58 c57 62 86 118
118 228 16 55 42 190 42 219 0 3 18 11 41 17 47 15 123 78 146 123 9 17 20 69
24 117 4 47 13 97 18 112 l11 27 619 0 c341 0 627 3 636 6 19 8 45 55 45 83 0
11 -11 33 -24 48 l-24 28 -590 3 -589 3 14 41 c24 70 18 169 -13 238 -32 71
-75 112 -142 136 l-49 18 19 70 c66 254 66 517 -2 701 -56 151 -191 315 -323
393 -134 80 -313 139 -507 167 -135 19 -415 26 -552 14z m-279 -883 c77 -51
168 -89 275 -113 97 -22 355 -22 452 0 156 35 305 113 377 197 l33 39 31 -25
c41 -31 114 -142 146 -219 59 -145 116 -359 117 -441 0 -69 59 -109 125 -85
49 17 84 13 110 -14 34 -33 34 -110 0 -182 l-24 -53 -1141 0 -1141 0 -24 53
c-34 72 -34 149 0 182 27 28 61 31 112 13 27 -10 38 -9 67 4 39 19 37 14 70
179 50 247 128 437 222 536 l54 57 35 -41 c20 -23 66 -62 104 -87z m1565
-1153 c-4 -43 -13 -88 -20 -100 -14 -23 -69 -43 -117 -43 -53 0 -73 -34 -81
-140 -6 -87 -24 -173 -57 -274 -7 -21 -33 -60 -57 -87 -44 -49 -187 -150 -291
-205 -30 -16 -88 -63 -130 -105 -117 -116 -252 -171 -363 -148 -98 20 -177 66
-262 151 -48 48 -102 91 -136 108 -94 48 -236 147 -282 199 -35 39 -50 67 -71
138 -28 93 -46 200 -47 271 0 52 -34 92 -77 92 -48 0 -103 20 -117 43 -7 12
-16 57 -20 100 l-6 77 1070 0 1070 0 -6 -77z m-1624 -983 c41 -24 104 -73 140
-109 247 -248 592 -248 839 -1 36 36 101 86 146 112 l80 47 17 -132 16 -131
-25 -51 c-59 -116 -201 -212 -378 -257 -77 -19 -116 -22 -275 -22 -159 0 -198
3 -275 22 -176 44 -319 142 -377 257 l-26 50 16 132 c9 72 18 130 21 129 3 -2
40 -23 81 -46z"/>
<path d="M239 1411 l-29 -29 0 -460 c0 -439 1 -463 21 -528 18 -57 31 -77 83
-130 53 -52 73 -65 130 -83 65 -20 89 -21 528 -21 l460 0 29 29 c17 18 29 40
29 56 0 16 -12 38 -29 56 l-29 29 -457 0 c-365 0 -462 3 -488 14 -39 16 -82
61 -96 99 -7 19 -11 186 -11 483 l0 456 -29 29 c-18 17 -40 29 -56 29 -16 0
-38 -12 -56 -29z"/>
<path d="M5189 1411 l-29 -29 0 -456 c0 -297 -4 -464 -11 -483 -14 -38 -57
-83 -96 -99 -26 -11 -123 -14 -488 -14 l-457 0 -29 -29 c-17 -18 -29 -40 -29
-56 0 -16 12 -38 29 -56 l29 -29 460 0 c439 0 463 1 528 21 57 18 77 31 130
83 52 53 65 73 83 130 20 65 21 89 21 528 l0 460 -29 29 c-18 17 -40 29 -56
29 -16 0 -38 -12 -56 -29z"/>
</g>
</svg>
